<svg width="820" height="210" viewBox="0 0 820 210" fill="none" xmlns="http://www.w3.org/2000/svg">
  <rect width="820" height="210" fill="white"/>
  <g transform="translate(22,18)">
    <circle cx="76" cy="87" r="58" fill="#1888D9"/>
    <path d="M27 68C42 39 74 22 108 28C127 31 143 40 155 54L149 65C136 72 124 76 111 78C77 84 47 80 27 68Z" fill="#F5AC2D"/>
    <path d="M19 78C42 93 76 99 112 95C129 93 145 88 159 81L164 91C149 101 131 108 111 112C74 120 38 115 15 99L19 78Z" fill="white"/>
    <path d="M14 100C40 116 79 123 119 119C136 117 153 112 167 104L171 115C155 126 135 133 114 137C72 145 32 138 8 117L14 100Z" fill="white"/>
    <path d="M11 121C37 137 77 145 118 141C136 139 154 134 170 126L174 138C157 149 136 156 113 160C70 168 29 161 4 140L11 121Z" fill="white"/>
  </g>
  <g fill="#0B0B0D">
    <path d="M257.53 70.62h26.34v16.86H257.53V70.62Zm-32.58 7.02h97.74v9.36h-97.74v-9.36Zm24.84-31.32h17.46c8.34 17.82 27.72 32.4 57.42 39.96-3.96 3.6-8.64 9.36-10.98 13.14-30.06-9.18-48.96-25.02-60.3-45.72-8.82 19.98-26.82 36.36-58.5 47.16-1.98-3.42-6.66-8.82-10.08-11.7 31.14-9.36 47.7-25.74 54.96-42.84Zm-20.7 59.4h16.56v33.48c0 6.48 1.26 7.38 8.28 7.38h22.14c6.3 0 7.38-3.42 8.28-21.42 3.42 2.7 10.08 5.22 14.4 6.3-1.98 23.04-6.3 30.06-21.06 30.06h-25.74c-17.1 0-21.96-4.68-21.96-22.14v-33.66Zm63-3.06 12.24-7.38c12.24 10.26 25.38 25.2 31.14 35.82l-13.14 8.46c-5.22-10.44-17.82-26.28-30.24-36.9Zm-105.3 43.56c10.98-8.1 20.16-22.86 24.48-36.72l14.04 5.58c-4.32 14.58-13.14 30.06-24.84 39.96l-13.68-8.82Z"/>
    <path d="M357.66 57.84h18.9v22.14c0 23.58-2.16 59.04-19.62 81.54-2.7-3.06-9.54-8.82-13.32-10.8 15.66-20.16 17.1-49.68 17.1-70.92V57.84h-3.06Zm6.84 0h88.92v15.3H364.5v-15.3Zm39.24 18h16.38v76.5h-16.38v-76.5Zm-25.56 31.68h66.78v14.58h-66.78v-14.58Zm-8.28 35.28h84.96v15.3H369.9v-15.3Zm26.64-84.6h15.66v56.16h-15.66V58.2Zm18 0h15.66v56.16h-15.66V58.2Z"/>
    <path d="M490.95 61.8h17.28v99.9h-17.28V61.8Zm-18.36 78.3c17.1-1.8 43.38-5.04 68.58-8.1l.54 15.3c-23.58 3.42-48.78 6.84-67.14 9.18l-1.98-16.38Zm11.16-56.16h50.58v14.76h-50.58V83.94Zm0 27.36h50.58v14.22h-50.58V111.3Zm62.64-48.96h57.24v15.66h-57.24V62.34Zm18.18 38.88h15.66c3.42 22.68 10.62 41.94 24.84 51.66-3.78 3.06-8.82 9.36-11.16 13.68-16.74-13.5-24.48-36.72-29.34-63.72Zm28.08 0h3.24l2.88-.54 10.8 3.06c-4.86 18.18-12.96 33.12-23.76 44.46-2.52-3.42-8.1-9-11.7-11.34 9.36-8.82 16.56-21.96 20.52-37.26v1.62Zm-42.48-24.84h16.2v24.84c0 18.9-1.8 45.72-15.84 62.82-2.88-2.7-10.08-7.74-14.04-9.54 12.6-15.3 13.68-37.44 13.68-53.46V76.38Zm31.14-14.04h16.2v18.54c0 7.74-1.26 11.34-6.48 13.68-5.04 2.34-12.24 2.52-22.14 2.52-.72-4.32-3.06-10.26-5.04-14.22 6.48.18 13.86.18 15.84.18 2.16-.18 2.7-.54 2.7-2.34V62.34Z"/>
    <path d="M644.7 60.54h17.28v54c0 17.28-1.62 36.9-12.78 50.58-2.52-3.42-8.82-9.72-12.42-12.06 9-11.16 7.92-26.64 7.92-38.7v-53.82Zm-1.08 69.84c11.52-1.44 28.8-3.78 45.18-6.12l.72 15.12c-15.66 2.52-32.4 5.04-44.64 6.84l-1.26-15.84Zm19.98-56.34h24.3v14.04h-24.3V74.04Zm0 24.48h24.3v13.5h-24.3v-13.5Zm24.3-37.98h16.2v104.04H687.9V60.54Zm32.58 5.22h16.92v80.82h-16.92V65.76Zm-6.84 74.34c16.02-1.44 39.42-3.78 61.2-6.3l.72 15.3c-20.16 2.52-41.58 4.86-57.6 6.66l-4.32-15.66Zm23.58-78.3h36.72v14.76h-36.72V61.8Zm0 23.76h33.48V99.6h-33.48V85.56Zm0 22.86h33.48v14.04h-33.48v-14.04Zm50.04-47.88h17.28v84.96c0 8.82-1.62 13.5-6.84 16.2-5.4 2.7-13.14 3.24-24.84 3.06-.72-4.68-3.24-12.42-5.58-17.1 7.38.36 14.94.36 17.28.18 2.34 0 3.06-.72 3.06-2.52V60.54Z"/>
  </g>
  <g fill="#0B0B0D">
    <path d="M262.62 164.78h7.14v28.56h-7.14v-28.56Zm18.48 0h7.14v28.56h-7.14v-28.56Zm8.34 22.62h13.08v5.94h-21.12v-5.94h8.04Zm28.92-22.62h7.26v28.56h-7.26v-28.56Zm22.08 0h7.2v28.56h-7.2v-28.56Zm24.48 0h6.9v28.56h-6.9v-28.56Zm4.08 0h17.88v5.94H369v-5.94Zm0 11.1h16.56v5.76H369v-5.76Zm0 11.52h17.88v5.94H369v-5.94Zm30-22.62h7.02v28.56H399v-28.56Zm4.5 0h18.72v5.94H403.5v-5.94Zm0 11.16h17.28v5.76H403.5v-5.76Zm24.24-11.16H435v28.56h-7.26v-28.56Zm18.18 0h7.08v28.56H445.92v-28.56Zm20.82 0H474v28.56h-7.26v-28.56Zm22.98 0h7.02v28.56h-7.02v-28.56Zm4.32 0h7.02l13.86 18.6v-18.6h7.08v28.56h-6.84l-14.04-18.6v18.6h-7.08v-28.56Zm42.48 0H567v5.94h-14.28v-5.94Zm0 11.16h13.2v5.76h-13.2v-5.76Zm0 11.52H567v5.94h-21.36v-5.94h8.04v-22.62h7.08v22.62Zm33.42-22.62h7.02v28.56h-7.02v-28.56Zm4.5 0h18.72v5.94h-18.72v-5.94Zm0 11.16h17.28v5.76h-17.28v-5.76Zm0 11.52h18.72v5.94h-18.72v-5.94Zm31.68-22.62h7.08v28.56h-7.08v-28.56Zm4.5 0h18.72v5.94H633.6v-5.94Zm0 11.16h17.28v5.76H633.6v-5.76Zm24.24-11.16h7.02v28.56h-7.02v-28.56Zm4.32 0h7.02l13.86 18.6v-18.6h7.08v28.56h-6.84l-14.04-18.6v18.6h-7.08v-28.56Z"/>
  </g>
</svg>
